<svg height="12.367138mm" viewBox="0 0 9.2288189 12.367138" width="9.228819mm" xmlns="http://www.w3.org/2000/svg"><g stroke-width=".264583" transform="translate(-55.804185 -53.520821)"><path d="m64.567917 53.913561v1.018023q-.594277-.28422-1.121375-.423746-.527098-.139526-1.018023-.139526-.852658 0-1.317745.330728-.459918.330728-.459918.940508 0 .511595.30489.775144.310057.258382 1.167883.418578l.630451.129191q1.167883.222208 1.720819.785479.558104.558104.558104 1.498612 0 1.121375-.754473 1.700149-.749306.578774-2.201409.578774-.547769 0-1.167884-.124023-.614948-.124023-1.276404-.366901v-1.074867q.635618.356567 1.245398.537434.60978.180867 1.19889.180867.893999 0 1.379756-.351399.485757-.351399.485757-1.00252 0-.568439-.351399-.888831-.346231-.320393-1.142045-.48059l-.635618-.124023q-1.167884-.232543-1.689814-.728635-.521931-.496092-.521931-1.379757 0-1.02319.7183-1.612299.723468-.58911 1.989537-.58911.542601 0 1.105872.09819.563271.09819 1.152381.294555z"/><path d="m62.026007 58.617108v1.100705q-.527098-.490925-1.126542-.733803-.594277-.242879-1.266069-.242879-1.322912 0-2.02571.811318-.702797.80615-.702797 2.335767 0 1.52445.702797 2.335767.702798.80615 2.02571.80615.671792 0 1.266069-.242878.599444-.242879 1.126542-.733803v1.090369q-.547768.372069-1.162716.558104-.60978.186034-1.291906.186034-1.751826 0-2.759513-1.069698-1.007687-1.074867-1.007687-2.930045 0-1.860345 1.007687-2.930044 1.007687-1.074867 2.759513-1.074867.692462 0 1.302241.186035.614948.180867 1.152381.547768z"/></g></svg>